<?xml version="1.0" encoding="UTF-8" standalone="no"?>
<!DOCTYPE svg PUBLIC "-//W3C//DTD SVG 1.1//EN" "http://www.w3.org/Graphics/SVG/1.1/DTD/svg11.dtd">
<svg version="1.1" xmlns="http://www.w3.org/2000/svg" xmlns:xlink="http://www.w3.org/1999/xlink" preserveAspectRatio="xMidYMid meet" viewBox="0 0 60 60" width="60" height="60"><defs><path d="M47.23 0.81C47.23 0.81 47.23 0.81 47.23 0.81C47.23 29.15 47.23 44.89 47.23 48.04C47.23 48.04 47.23 48.04 47.23 48.04C18.89 48.04 3.15 48.04 0 48.04C0 48.04 0 48.04 0 48.04C0 19.7 0 3.96 0 0.81C0 0.81 0 0.81 0 0.81C28.34 0.81 44.08 0.81 47.23 0.81Z" id="a3hegh0o"></path><path d="M38.75 32.6C37.05 32.6 35.67 33.98 35.67 35.68C35.67 37.38 37.05 38.75 38.75 38.75C40.45 38.75 41.83 37.38 41.83 35.68C41.83 33.98 40.45 32.6 38.75 32.6Z" id="abtaMeme"></path><path d="M8.86 32.6C7.16 32.6 5.78 33.98 5.78 35.68C5.78 37.38 7.16 38.75 8.86 38.75C10.56 38.75 11.94 37.38 11.94 35.68C11.94 33.98 10.56 32.6 8.86 32.6Z" id="cCmKJUoEf"></path><path d="M47.63 28.38C45.87 27.78 42.91 25.78 41.83 25.42C35.17 23.12 26.28 23.03 22.98 23.79C18.1 24.94 15.16 26.67 12.47 27.42C8.7 28.41 7.37 28.17 3.02 29.97C2.38 30.23 1.51 30.77 1.34 31.55C0.96 33.39 1.65 33.93 1.72 34.39C1.78 34.86 1.52 34.87 1.38 34.87C1.38 34.87 1.14 36.25 1.81 36.51C2.44 36.81 3.08 37.07 3.74 37.3C4.07 37.29 4.39 37.26 4.72 37.19C4.54 36.71 4.45 36.19 4.45 35.68C4.45 33.23 6.43 31.26 8.87 31.26C11.31 31.26 13.29 33.23 13.29 35.68C13.29 36.2 13.24 36.72 13.14 37.23C18.97 37.27 30.67 37 34.62 37.23C33.76 34.94 34.92 32.4 37.2 31.54C39.49 30.68 42.04 31.83 42.9 34.12C43.19 34.9 43.26 35.75 43.09 36.57C44.36 36.56 45.63 36.45 46.88 36.24C47.33 35.97 48.59 33.79 48.44 32.25C48.29 30.69 48.44 28.67 47.63 28.38ZM15.62 27.83C15.88 27.49 19.9 24.73 26.8 24.36C26.64 25.26 26.34 27.04 26.19 28.14C22.51 28.27 18.74 28.38 17.84 28.35C17.07 28.41 16.3 28.22 15.62 27.83ZM40.47 25.97C40.29 26.27 40.06 26.54 39.8 26.78C38.76 27.62 36.62 27.6 32.96 27.82C31.85 27.88 30.18 27.96 28.33 28.04C28.31 27.67 28.13 24.68 28.1 24.3C32.3 24.21 36.49 24.77 40.51 25.96C40.59 25.89 40.51 25.97 40.51 25.97C40.5 25.97 40.47 25.97 40.47 25.97Z" id="a47eH7alsN"></path><path d="M52.96 26.52C52.96 26.31 53.12 26.14 53.33 26.14C53.33 26.14 53.33 26.14 53.33 26.14C53.86 26.14 58.09 26.14 58.61 26.14C58.82 26.14 58.99 26.31 58.99 26.52C58.99 26.52 58.99 26.52 58.99 26.52C58.99 26.58 58.99 27.12 58.99 27.19C58.99 28.86 57.64 30.21 55.97 30.21C55.97 30.21 55.97 30.21 55.97 30.21C54.3 30.2 52.96 28.85 52.96 27.19C52.96 27.19 52.96 26.58 52.96 26.52Z" id="am24oworb"></path><path d="M52.68 26.06C52.68 25.7 52.86 25.52 53.22 25.52C56.52 25.52 58.35 25.52 58.71 25.52C59.07 25.52 59.25 25.7 59.25 26.06C59.25 26.06 59.25 26.06 59.25 26.06C59.25 26.42 59.07 26.6 58.71 26.6C55.42 26.6 53.59 26.6 53.22 26.6C52.86 26.6 52.68 26.42 52.68 26.06C52.68 26.06 52.68 26.06 52.68 26.06Z" id="cRepzUeg1"></path><path d="M56.71 23.79C56.71 23.48 56.86 23.33 57.17 23.33C57.17 23.33 57.17 23.33 57.17 23.33C57.48 23.33 57.63 23.48 57.63 23.79C57.63 25.08 57.63 25.8 57.63 25.94C57.63 26.25 57.48 26.4 57.17 26.4C57.17 26.4 57.17 26.4 57.17 26.4C56.86 26.4 56.71 26.25 56.71 25.94C56.71 24.65 56.71 23.93 56.71 23.79Z" id="d1nzblp6CL"></path><path d="M54.3 23.79C54.3 23.48 54.46 23.33 54.76 23.33C54.76 23.33 54.76 23.33 54.76 23.33C55.07 23.33 55.22 23.48 55.22 23.79C55.22 25.08 55.22 25.8 55.22 25.94C55.22 26.25 55.07 26.4 54.76 26.4C54.76 26.4 54.76 26.4 54.76 26.4C54.46 26.4 54.3 26.25 54.3 25.94C54.3 24.65 54.3 23.93 54.3 23.79Z" id="b1Of1NvrM"></path><path d="M54.1 34.85C55.4 34.85 56.46 33.79 56.46 32.5C56.46 32.5 56.46 32.5 56.46 32.5C56.46 32.27 56.46 31.13 56.46 29.08L55.42 29.08C55.42 31.13 55.42 32.27 55.42 32.5C55.42 33.22 54.83 33.81 54.1 33.81C54.09 33.81 53.94 33.81 53.92 33.81C53.2 33.81 52.61 33.22 52.6 32.5C52.6 31.2 51.55 30.14 50.25 30.14C50.25 30.14 50.25 30.14 50.25 30.14C49.95 30.14 48.43 30.14 45.7 30.14L45.7 31.18C48.43 31.18 49.95 31.18 50.25 31.18C50.98 31.18 51.57 31.77 51.57 32.5C51.57 33.79 52.62 34.85 53.92 34.85C53.96 34.85 54.09 34.85 54.1 34.85Z" id="a21fbG07XK"></path></defs><g><g><g><use xlink:href="#a3hegh0o" opacity="1" fill="#000000" fill-opacity="0"></use><g><use xlink:href="#a3hegh0o" opacity="1" fill-opacity="0" stroke="#000000" stroke-width="1" stroke-opacity="0"></use></g></g><g><use xlink:href="#abtaMeme" opacity="1" fill="#000000" fill-opacity="1"></use><g><use xlink:href="#abtaMeme" opacity="1" fill-opacity="0" stroke="#000000" stroke-width="1" stroke-opacity="0"></use></g></g><g><use xlink:href="#cCmKJUoEf" opacity="1" fill="#000000" fill-opacity="1"></use><g><use xlink:href="#cCmKJUoEf" opacity="1" fill-opacity="0" stroke="#000000" stroke-width="1" stroke-opacity="0"></use></g></g><g><use xlink:href="#a47eH7alsN" opacity="1" fill="#000000" fill-opacity="1"></use><g><use xlink:href="#a47eH7alsN" opacity="1" fill-opacity="0" stroke="#000000" stroke-width="1" stroke-opacity="0"></use></g></g><g><use xlink:href="#am24oworb" opacity="1" fill="#000000" fill-opacity="1"></use><g><use xlink:href="#am24oworb" opacity="1" fill-opacity="0" stroke="#000000" stroke-width="1" stroke-opacity="0"></use></g></g><g><use xlink:href="#cRepzUeg1" opacity="1" fill="#000000" fill-opacity="1"></use><g><use xlink:href="#cRepzUeg1" opacity="1" fill-opacity="0" stroke="#000000" stroke-width="1" stroke-opacity="0"></use></g></g><g><use xlink:href="#d1nzblp6CL" opacity="1" fill="#000000" fill-opacity="1"></use><g><use xlink:href="#d1nzblp6CL" opacity="1" fill-opacity="0" stroke="#000000" stroke-width="1" stroke-opacity="0"></use></g></g><g><use xlink:href="#b1Of1NvrM" opacity="1" fill="#000000" fill-opacity="1"></use><g><use xlink:href="#b1Of1NvrM" opacity="1" fill-opacity="0" stroke="#000000" stroke-width="1" stroke-opacity="0"></use></g></g><g><use xlink:href="#a21fbG07XK" opacity="1" fill="#000000" fill-opacity="1"></use><g><use xlink:href="#a21fbG07XK" opacity="1" fill-opacity="0" stroke="#000000" stroke-width="1" stroke-opacity="0"></use></g></g></g></g></svg>