<svg width="84" height="31" viewBox="0 0 84 31" fill="none" xmlns="http://www.w3.org/2000/svg">
<g clip-path="url(#clip0_45_411)">
<path d="M0 0.00149628V23.9472L3.02646 23.9567V12.5535H10.3235V9.53935H3.02646V3.01414H12.5298V0L0 0.00149628Z" fill="white"/>
<path d="M17.9777 4.86261C19.0678 4.86261 19.9514 3.96295 19.9514 2.85318C19.9514 1.7434 19.0678 0.84375 17.9777 0.84375C16.8877 0.84375 16.0039 1.7434 16.0039 2.85318C16.0039 3.96295 16.8877 4.86261 17.9777 4.86261Z" fill="white"/>
<path d="M16.4375 7.87695V23.9524H19.464V7.87695H16.4375Z" fill="white"/>
<path fill-rule="evenodd" clip-rule="evenodd" d="M30.6888 7.40723C26.6699 7.40723 23.8652 10.8676 23.8652 14.976C23.8652 19.0845 26.6699 22.5449 30.6888 22.5449C32.5288 22.5449 34.0451 21.8197 35.1487 20.6392V22.7794C35.1487 25.4428 33.0937 27.6689 30.4116 27.6689C29.4476 27.6689 28.4898 27.2885 27.7267 26.7531L26.2102 29.4269C27.4214 30.2217 28.8636 30.6831 30.4116 30.6831C34.6994 30.6831 38.1751 27.1444 38.1751 22.7794V7.87609H35.1487V9.313C34.0451 8.13241 32.5288 7.40723 30.6888 7.40723ZM26.8917 14.976C26.8917 12.4258 28.8078 10.4214 31.0178 10.4214C33.228 10.4214 35.144 12.4258 35.144 14.976C35.144 17.5262 33.228 19.5308 31.0178 19.5308C28.8078 19.5308 26.8917 17.5262 26.8917 14.976Z" fill="white"/>
<path d="M49.0812 10.4214C47.2917 10.4214 45.8409 11.9652 45.8409 13.7871V23.9515H42.8145V7.87609H45.8409V9.34869C46.7277 8.18166 48.0341 7.40723 49.7391 7.40723C51.8597 7.40723 53.4874 8.47955 54.43 10.1206C55.4783 8.5355 57.1881 7.40723 59.2461 7.40723C62.6907 7.40723 64.8347 10.2365 64.855 13.7369C64.855 13.7474 64.855 13.758 64.855 13.7687V13.7693V13.7698V13.7704C64.855 13.7759 64.855 13.7815 64.855 13.7871V23.9515H61.8285V13.7871C61.8285 11.9652 60.3778 10.4214 58.5883 10.4214C56.7986 10.4214 55.348 11.9652 55.348 13.7871V23.9515H52.3215V13.7871C52.3215 11.9652 50.8708 10.4214 49.0812 10.4214Z" fill="white"/>
<path fill-rule="evenodd" clip-rule="evenodd" d="M80.9741 9.69839C79.6277 8.28301 77.7838 7.40723 75.6449 7.40723C71.1425 7.40723 67.9473 11.2882 67.9473 15.9138C67.9473 20.5394 71.1425 24.4203 75.6449 24.4203C77.7838 24.4203 79.6277 23.5446 80.9741 22.1292V23.9515H84.0006V7.87609H80.9741V9.69839ZM70.9737 15.9138C70.9737 12.845 73.2817 10.4214 75.9739 10.4214C78.666 10.4214 80.9741 12.845 80.9741 15.9138C80.9741 18.9826 78.666 21.4062 75.9739 21.4062C73.2817 21.4062 70.9737 18.9826 70.9737 15.9138Z" fill="white"/>
</g>
<defs>
<clipPath id="clip0_45_411">
<rect width="84" height="31" fill="white"/>
</clipPath>
</defs>
</svg>
