<svg width="147" height="30" viewBox="0 0 147 30" fill="none" xmlns="http://www.w3.org/2000/svg">
<g clip-path="url(#clip0_123_450)">
<mask id="mask0_123_450" style="mask-type:luminance" maskUnits="userSpaceOnUse" x="0" y="0" width="147" height="30">
<path d="M146.15 0H0V30H146.15V0Z" fill="white"/>
</mask>
<g mask="url(#mask0_123_450)">
<path d="M15.3613 3.72266H29.6837V7.73175H20.4187V13.6909H27.7552V17.5363H20.4187V26.2772H15.3613V3.72266Z" fill="white"/>
<path d="M32.435 5.59047C32.4189 5.13366 32.5383 4.68242 32.7779 4.29476C33.0174 3.90711 33.3661 3.60077 33.7792 3.41516C34.1924 3.22954 34.651 3.17313 35.096 3.25317C35.5412 3.33322 35.9524 3.54607 36.2769 3.86434C36.6013 4.1826 36.8243 4.59175 36.9169 5.03914C37.0096 5.48654 36.9678 5.95174 36.7968 6.37491C36.6259 6.79807 36.3336 7.15986 35.9576 7.41374C35.5818 7.66762 35.1393 7.80199 34.6872 7.79956C34.3947 7.8087 34.1033 7.7583 33.8305 7.65138C33.5575 7.54446 33.3087 7.38319 33.0986 7.17715C32.8886 6.97109 32.7215 6.72446 32.6075 6.4519C32.4936 6.17933 32.4349 5.8864 32.435 5.59047ZM32.435 9.68138H36.926V26.1814H32.435V9.68138Z" fill="white"/>
<path d="M41.0918 9.77688H45.6097V12.4087C46.1195 11.4517 46.8894 10.6621 47.8284 10.133C48.7675 9.60389 49.8367 9.3573 50.9098 9.42232C54.1195 9.42232 56.3987 11.3723 56.3987 15.7905V26.2905H51.8808V16.4996C51.8808 14.2632 51.0042 13.1996 49.0082 13.1996C48.5392 13.1708 48.0697 13.2461 47.6325 13.4201C47.1954 13.5941 46.8011 13.8626 46.4774 14.2069C46.1536 14.5511 45.9081 14.9628 45.7583 15.4129C45.6085 15.8632 45.5576 16.3411 45.6097 16.8132V26.3587H41.0918V9.77688Z" fill="white"/>
<path d="M59.084 21.0956H63.2917C63.4805 22.5819 64.1953 23.4274 66.1643 23.4274C67.904 23.4274 68.7132 22.7728 68.7132 21.641C68.7132 20.5092 67.7556 20.0319 65.409 19.6774C61.0665 19.0228 59.3942 17.7546 59.3942 14.5365C59.3942 11.1001 62.5095 9.40918 65.8541 9.40918C69.4684 9.40918 72.1791 10.7728 72.5972 14.5092H68.4569C68.4259 14.205 68.3338 13.9104 68.1864 13.6434C68.0388 13.3764 67.8391 13.1427 67.5993 12.9563C67.3595 12.77 67.0847 12.6351 66.7916 12.5598C66.4985 12.4844 66.1933 12.4703 65.8945 12.5183C64.4245 12.5183 63.5884 13.2137 63.5884 14.2228C63.5884 15.2319 64.3706 15.6819 66.7307 16.0228C70.7766 16.6228 73.0692 17.6592 73.0692 21.191C73.0692 24.7228 70.5068 26.6456 66.2047 26.6456C61.9026 26.6456 59.2323 24.6819 59.084 21.0956Z" fill="white"/>
<path d="M74.1465 9.77734H78.8802L81.7797 20.8774L84.922 9.77734H88.6307L91.5033 20.8774L94.6051 9.77734H98.9477L93.7959 26.2774H89.4129L86.6347 15.9274L83.6408 26.2774H79.1499L74.1465 9.77734Z" fill="white"/>
<path d="M99.8393 18.2318V17.9727C99.7855 16.8349 99.9673 15.6982 100.373 14.6355C100.779 13.5728 101.4 12.6075 102.195 11.8014C102.992 10.9953 103.945 10.3661 104.996 9.95413C106.046 9.54217 107.17 9.35654 108.295 9.40911C112.503 9.40911 116.252 11.8909 116.252 17.7955V19.05H104.492C104.613 21.7773 106.083 23.3727 108.538 23.3727C110.628 23.3727 111.667 22.4591 111.936 21.0682H116.212C115.686 24.6273 112.881 26.6182 108.417 26.6182C103.427 26.6182 99.8393 23.4955 99.8393 18.2318ZM111.775 16.2409C111.626 13.7591 110.426 12.5591 108.228 12.5591C107.252 12.5587 106.314 12.9431 105.614 13.6306C104.914 14.318 104.507 15.2546 104.479 16.2409H111.775Z" fill="white"/>
<path d="M118.14 18.2319V17.9728C118.087 16.841 118.267 15.7102 118.669 14.6525C119.07 13.5946 119.685 12.6326 120.473 11.8275C121.262 11.0225 122.208 10.3918 123.25 9.97548C124.292 9.55919 125.409 9.36635 126.528 9.40916C130.736 9.40916 134.485 11.891 134.485 17.7955V19.0501H122.725C122.847 21.7773 124.317 23.3728 126.771 23.3728C128.862 23.3728 129.886 22.4591 130.17 21.0682H134.431C133.905 24.6273 131.1 26.6182 126.636 26.6182C121.781 26.6182 118.14 23.4955 118.14 18.2319ZM130.089 16.241C129.927 13.7592 128.74 12.5592 126.528 12.5592C125.554 12.5588 124.618 12.9437 123.92 13.6315C123.222 14.3193 122.817 15.2559 122.793 16.241H130.089Z" fill="white"/>
<path d="M146.136 22.9223V26.5905H143.102C139.865 26.495 138.126 24.736 138.126 21.395V13.036H136.035V9.77686H138.126V6.21777H142.616V9.77686H146.055V13.036H142.616V20.9723C142.616 22.036 143.035 22.6496 143.79 22.8541C143.956 22.875 144.123 22.875 144.289 22.8541L146.136 22.9223Z" fill="white"/>
<path d="M6.71633 11.1409C6.71633 12.5046 6.79725 14.0182 5.48908 14.9591C6.83771 15.9 6.71633 17.1409 6.71633 18.6273V24.2727C6.71633 25.35 7.13441 25.9773 7.90312 26.1818C8.0688 26.2354 8.24164 26.2631 8.4156 26.2637H10.3172V30H7.21532C3.89771 29.9046 2.13101 28.1046 2.13101 24.6955V18.0137C2.13101 17.652 1.98892 17.3051 1.73601 17.0494C1.48309 16.7937 1.14006 16.65 0.782386 16.65H0.0136719V13.3637H0.782386C1.14006 13.3637 1.48309 13.22 1.73601 12.9643C1.98892 12.7085 2.13101 12.3617 2.13101 12V5.31822C2.13101 1.90913 3.89771 0.109126 7.21532 0.0136719H10.3172V3.75004H8.4156C8.24164 3.75062 8.0688 3.77821 7.90312 3.83185C7.13441 4.0364 6.71633 4.66367 6.71633 5.74094V11.1409Z" fill="white"/>
</g>
</g>
<defs>
<clipPath id="clip0_123_450">
<rect width="147" height="30" fill="white"/>
</clipPath>
</defs>
</svg>
