<svg width="217" height="50" viewBox="0 0 217 50" fill="none" xmlns="http://www.w3.org/2000/svg">
<path d="M48.9933 21.1592L54.3218 33.1303C55.4001 35.5528 54.3109 38.391 51.889 39.4696C49.4672 40.5481 46.6298 39.4587 45.5515 37.0362L41.244 27.3589L39.3457 31.8323V21.1592H48.9933V21.1592Z" fill="white"/>
<path d="M49.5698 22.457L50.6723 24.9339C50.0064 24.7025 49.291 24.5767 48.5462 24.5767C45.4697 24.5767 42.8949 26.7221 42.239 29.5969L41.243 27.3593L40.1875 29.8467L40.1875 22.457H49.5698Z" fill="white" fill-opacity="0.2"/>
<path d="M33.5345 20.9492V29.4266H24.6575L23.7373 27.3592L22.86 29.4266H13.041V27.9881L19.1951 13.4862C19.9734 11.652 21.758 10.5531 23.6324 10.5596C25.4764 10.5532 27.2387 11.616 28.0369 13.4093L32.4893 23.4122L33.5345 20.9492Z" fill="white"/>
<path d="M32.4828 23.3977L32.4892 23.4122L36.7015 13.4862C37.4798 11.652 39.2643 10.5531 41.1388 10.5596C42.9828 10.5532 44.745 11.616 45.5432 13.4093L50.6684 24.9236C49.6348 24.0309 48.2882 23.4909 46.8156 23.4909C44.2568 23.4909 42.0785 25.121 41.2617 27.3997L41.2437 27.3592L37.1058 37.1099C36.07 39.5508 33.252 40.6896 30.8117 39.6535C30.573 39.5521 30.3467 39.4337 30.1336 39.3002C29.2387 38.8135 28.491 38.0392 28.0447 37.0364L23.7539 27.3966C24.3998 27.5817 25.082 27.6807 25.7873 27.6807C28.7552 27.6807 31.3136 25.9264 32.4828 23.3977Z" fill="white"/>
<path d="M23.7106 27.4216L20.6207 34.7029C19.8671 35.049 19.0274 35.2417 18.1421 35.2417C15.0368 35.2417 12.4919 32.8704 12.2598 29.8286L14.3803 24.8316C15.4014 23.9859 16.7124 23.4775 18.1421 23.4775C20.7157 23.4775 22.9043 25.1246 23.7106 27.4216Z" fill="white"/>
<path d="M22.8031 29.5586L19.5989 37.1094C18.563 39.5504 15.745 40.6892 13.3047 39.6531C10.8644 38.617 9.72589 35.7982 10.7617 33.3573L14.3198 24.9728C15.073 24.6393 15.906 24.4541 16.7821 24.4541C19.8068 24.4541 22.3178 26.6614 22.8031 29.5586Z" fill="white"/>
<path d="M81.5264 17.9503V32.7018C81.5264 32.9287 81.3425 33.1127 81.1155 33.1127H78.239C78.0121 33.1127 77.8281 32.9287 77.8281 32.7018V24.1579C77.8281 23.931 77.6441 23.747 77.4172 23.747C77.2822 23.747 77.1558 23.8133 77.0791 23.9244L74.4167 27.7785C74.34 27.8895 74.2136 27.9558 74.0786 27.9558H72.6625C72.5264 27.9558 72.3992 27.8885 72.3227 27.776L69.7439 23.9848C69.6163 23.7972 69.3607 23.7485 69.1731 23.8762C69.0606 23.9527 68.9932 24.0799 68.9932 24.2159V32.7018C68.9932 32.9287 68.8093 33.1127 68.5823 33.1127H65.7058C65.4789 33.1127 65.2949 32.9287 65.2949 32.7018V17.9503C65.2949 17.7234 65.4789 17.5394 65.7058 17.5394H69.3488C69.4861 17.5394 69.6143 17.608 69.6906 17.7221L73.069 22.7804C73.195 22.9691 73.4502 23.02 73.6389 22.8939C73.6838 22.8639 73.7224 22.8254 73.7524 22.7804L77.1308 17.7221C77.207 17.608 77.3353 17.5394 77.4725 17.5394H81.1155C81.3425 17.5394 81.5264 17.7234 81.5264 17.9503ZM86.5687 28.4078C86.7194 29.0653 87.031 29.5789 87.5036 29.9487C87.9761 30.3185 88.6713 30.5034 89.589 30.5034C90.1232 30.5034 90.6334 30.4384 91.1197 30.3083C91.3847 30.2373 91.8062 30.0756 92.384 29.8231C92.5919 29.7323 92.8342 29.8272 92.9251 30.0351C92.9299 30.0462 92.9342 30.0574 92.9381 30.0689L93.6021 32.0461C93.6689 32.2451 93.575 32.4625 93.3842 32.5502C92.6054 32.9083 92.0115 33.1334 91.6025 33.2257C90.904 33.3832 90.0684 33.4619 89.0959 33.4619C87.7398 33.4619 86.5858 33.2051 85.6339 32.6915C84.6819 32.1779 83.9593 31.4554 83.4662 30.524C82.9731 29.5926 82.7266 28.5106 82.7266 27.2778C82.7266 25.9903 82.98 24.8843 83.4868 23.9598C83.9936 23.0353 84.6785 22.3367 85.5414 21.8642C86.4043 21.3916 87.37 21.1554 88.4384 21.1554C90.1506 21.1554 91.493 21.6519 92.4655 22.6449C93.438 23.6379 93.9243 25.0863 93.9243 26.9902V27.9969C93.9243 28.2239 93.7403 28.4078 93.5133 28.4078H86.5687ZM88.4384 24.1139C87.9453 24.1139 87.5447 24.2372 87.2365 24.4837C87.0131 24.6883 86.846 24.9232 86.7353 25.1883C86.6479 25.3977 86.7468 25.6384 86.9562 25.7258C87.0064 25.7467 87.0602 25.7575 87.1145 25.7575H89.6817C89.9087 25.7575 90.0927 25.5735 90.0927 25.3466C90.0927 25.3108 90.088 25.2752 90.0788 25.2406C89.9938 24.9223 89.8545 24.6768 89.6609 24.5042C89.349 24.247 88.9726 24.1139 88.4384 24.1139ZM109.233 21.2376C110.712 21.2376 111.818 21.6279 112.551 22.4086C113.284 23.1894 113.65 24.4289 113.65 26.1273V32.7018C113.65 32.9287 113.466 33.1127 113.239 33.1127H110.486C110.259 33.1127 110.075 32.9287 110.075 32.7018V26.1273C110.075 25.5657 109.952 25.1377 109.705 24.8432C109.459 24.5488 109.034 24.4015 108.431 24.4015C107.692 24.4015 106.938 24.7302 106.171 25.3877C106.185 25.5383 106.192 25.7849 106.192 26.1273V32.7018C106.192 32.9287 106.008 33.1127 105.781 33.1127H103.028C102.801 33.1127 102.617 32.9287 102.617 32.7018V26.1273C102.617 25.5657 102.494 25.1377 102.247 24.8432C102.001 24.5488 101.576 24.4015 100.973 24.4015C100.247 24.4015 99.5007 24.7165 98.7337 25.3466V32.7018C98.7337 32.9287 98.5497 33.1127 98.3227 33.1127H95.5695C95.3426 33.1127 95.1586 32.9287 95.1586 32.7018V21.895C95.1586 21.6681 95.3426 21.4841 95.5695 21.4841H98.3227C98.5497 21.4841 98.7337 21.6681 98.7337 21.895V22.3881C99.2131 21.9909 99.6959 21.6998 100.182 21.5149C100.668 21.33 101.199 21.2376 101.775 21.2376C103.596 21.2376 104.843 21.8197 105.514 22.9839C106.13 22.3812 106.73 21.9395 107.312 21.6587C107.894 21.3779 108.534 21.2376 109.233 21.2376ZM121.768 21.1554C122.809 21.1554 123.73 21.3848 124.532 21.8436C125.333 22.3025 125.963 22.9942 126.422 23.9187C126.881 24.8432 127.11 25.9698 127.11 27.2984C127.11 28.6407 126.881 29.7741 126.422 30.6986C125.963 31.6232 125.333 32.3148 124.532 32.7737C123.73 33.2325 122.809 33.4619 121.768 33.4619C120.659 33.4619 119.618 33.0921 118.645 32.3525V32.7018C118.645 32.9287 118.461 33.1127 118.234 33.1127H115.481C115.254 33.1127 115.07 32.9287 115.07 32.7018V16.1423C115.07 15.9154 115.254 15.7314 115.481 15.7314H118.234C118.461 15.7314 118.645 15.9154 118.645 16.1423V22.2648C119.618 21.5252 120.659 21.1554 121.768 21.1554ZM120.987 30.298C121.782 30.298 122.381 30.0446 122.785 29.5378C123.189 29.031 123.391 28.2846 123.391 27.2984C123.391 26.3259 123.189 25.5863 122.785 25.0795C122.381 24.5727 121.782 24.3193 120.987 24.3193C120.207 24.3193 119.426 24.6001 118.645 25.1617V29.4556C119.426 30.0172 120.207 30.298 120.987 30.298ZM131.639 28.4078C131.79 29.0653 132.101 29.5789 132.574 29.9487C133.046 30.3185 133.741 30.5034 134.659 30.5034C135.193 30.5034 135.704 30.4384 136.19 30.3083C136.455 30.2373 136.876 30.0756 137.454 29.8231C137.662 29.7323 137.904 29.8272 137.995 30.0351C138 30.0462 138.004 30.0574 138.008 30.0689L138.672 32.0461C138.739 32.2451 138.645 32.4625 138.454 32.5502C137.676 32.9083 137.082 33.1334 136.673 33.2257C135.974 33.3832 135.139 33.4619 134.166 33.4619C132.81 33.4619 131.656 33.2051 130.704 32.6915C129.752 32.1779 129.029 31.4554 128.536 30.524C128.043 29.5926 127.797 28.5106 127.797 27.2778C127.797 25.9903 128.05 24.8843 128.557 23.9598C129.064 23.0353 129.749 22.3367 130.612 21.8642C131.474 21.3916 132.44 21.1554 133.509 21.1554C135.221 21.1554 136.563 21.6519 137.536 22.6449C138.508 23.6379 138.994 25.0863 138.994 26.9902V27.9969C138.994 28.2239 138.81 28.4078 138.583 28.4078H131.639ZM133.509 24.1139C133.015 24.1139 132.615 24.2372 132.307 24.4837C132.083 24.6883 131.916 24.9232 131.805 25.1883C131.718 25.3977 131.817 25.6384 132.026 25.7258C132.077 25.7467 132.13 25.7575 132.185 25.7575H134.752C134.979 25.7575 135.163 25.5735 135.163 25.3466C135.163 25.3108 135.158 25.2752 135.149 25.2406C135.064 24.9223 134.925 24.6768 134.731 24.5042C134.419 24.247 134.043 24.1139 133.509 24.1139ZM147.473 21.6485V23.9906C147.473 24.2175 147.289 24.4015 147.062 24.4015H147.001C146.889 24.4015 146.778 24.4057 146.666 24.4141C145.723 24.4853 144.78 24.8577 143.836 25.5315V32.7018C143.836 32.9287 143.652 33.1127 143.426 33.1127H140.672C140.445 33.1127 140.261 32.9287 140.261 32.7018V21.895C140.261 21.6681 140.445 21.4841 140.672 21.4841H143.426C143.652 21.4841 143.836 21.6681 143.836 21.895V22.5114C144.343 22.0868 144.853 21.7683 145.367 21.556C145.843 21.3595 146.344 21.2539 146.873 21.2393C146.915 21.2381 146.958 21.2376 147.001 21.2376H147.062C147.289 21.2376 147.473 21.4215 147.473 21.6485ZM153.022 33.4619C152.049 33.4619 151.19 33.3832 150.443 33.2257C149.993 33.1307 149.532 32.9948 149.06 32.8178C148.895 32.7557 148.66 32.6576 148.356 32.5234C148.207 32.4576 148.111 32.3103 148.111 32.1476V29.9429C148.111 29.716 148.295 29.532 148.522 29.532C148.585 29.532 148.647 29.5464 148.704 29.5742C148.857 29.6496 148.986 29.7096 149.09 29.754C149.549 29.95 150.01 30.1039 150.474 30.2158C151.269 30.4076 152.118 30.5034 153.022 30.5034C153.912 30.5034 154.357 30.2363 154.357 29.7022C154.357 29.483 154.296 29.3187 154.172 29.2091C154.049 29.0995 153.851 29.0105 153.577 28.942L151.584 28.5311C150.419 28.2983 149.57 27.901 149.036 27.3395C148.502 26.7779 148.235 26.0109 148.235 25.0384C148.235 23.7235 148.642 22.7476 149.457 22.1107C150.272 21.4738 151.508 21.1554 153.166 21.1554C153.851 21.1554 154.566 21.2239 155.313 21.3608C155.74 21.4392 156.155 21.5311 156.558 21.6365C156.704 21.6748 156.901 21.7312 157.147 21.8056C157.321 21.858 157.439 22.0178 157.439 22.1989V24.325C157.439 24.5519 157.255 24.7359 157.028 24.7359C156.979 24.7359 156.93 24.7269 156.883 24.7094C156.78 24.6705 156.689 24.6383 156.609 24.6129C156.283 24.509 155.926 24.418 155.539 24.3399C154.792 24.1892 154.063 24.1139 153.351 24.1139C152.789 24.1139 152.399 24.1687 152.179 24.2782C151.96 24.3878 151.851 24.559 151.851 24.7919C151.851 24.9699 151.906 25.0966 152.015 25.172C152.125 25.2473 152.31 25.3124 152.57 25.3671L154.563 25.778C155.768 26.0246 156.638 26.4286 157.172 26.9902C157.706 27.5518 157.974 28.3873 157.974 29.4967C157.974 30.8253 157.528 31.8183 156.638 32.4758C155.748 33.1332 154.542 33.4619 153.022 33.4619ZM163.687 25.4699V28.9831C163.687 29.4351 163.762 29.7535 163.913 29.9384C164.063 30.1234 164.337 30.2158 164.735 30.2158C164.996 30.2158 165.241 30.1975 165.471 30.1608L165.471 30.1608C165.695 30.1249 165.906 30.2775 165.942 30.5016C165.945 30.5231 165.947 30.5448 165.947 30.5665V32.7555C165.947 32.9519 165.808 33.1208 165.615 33.1587C165.597 33.1623 165.58 33.1655 165.565 33.1684C165.262 33.2271 164.995 33.2736 164.765 33.3079C164.443 33.3558 164.098 33.3798 163.728 33.3798C162.509 33.3798 161.601 33.1127 161.005 32.5785C160.41 32.0443 160.112 31.2773 160.112 30.2774V25.4699C160.112 25.2429 159.928 25.059 159.701 25.059H158.92C158.693 25.059 158.509 24.875 158.509 24.6481V22.3059C158.509 22.079 158.693 21.895 158.92 21.895H159.701C159.928 21.895 160.112 21.711 160.112 21.4841V18.4023C160.112 18.1754 160.296 17.9914 160.523 17.9914H163.276C163.503 17.9914 163.687 18.1754 163.687 18.4023V21.4841C163.687 21.711 163.871 21.895 164.098 21.895H165.906C166.133 21.895 166.317 22.079 166.317 22.3059V24.6481C166.317 24.875 166.133 25.059 165.906 25.059H164.098C163.871 25.059 163.687 25.2429 163.687 25.4699ZM172.166 21.4841C173.673 21.4841 174.82 21.6861 175.608 22.0902C176.395 22.4942 176.919 23.0318 177.179 23.703C177.44 24.3741 177.57 25.2302 177.57 26.2711V32.7018C177.57 32.9287 177.386 33.1127 177.159 33.1127H174.406C174.179 33.1127 173.995 32.9287 173.995 32.7018V32.1676C173.515 32.6059 173.043 32.9175 172.577 33.1024C172.111 33.2873 171.598 33.3798 171.036 33.3798C169.721 33.3798 168.69 33.0339 167.944 32.3422C167.197 31.6505 166.824 30.6883 166.824 29.4556C166.824 28.2092 167.204 27.2505 167.964 26.5793C168.725 25.9082 169.783 25.5726 171.139 25.5726C172.262 25.5726 173.214 25.778 173.995 26.1889C173.981 25.8054 173.923 25.5007 173.82 25.2747C173.717 25.0487 173.512 24.8741 173.204 24.7508C172.895 24.6275 172.447 24.5659 171.858 24.5659H169.926C169.7 24.5659 169.516 24.3819 169.516 24.155V21.895C169.516 21.6681 169.7 21.4841 169.926 21.4841H172.166ZM171.264 30.6267C171.962 30.6267 172.695 30.3117 173.462 29.6816V28.5927C172.805 28.2777 172.141 28.1202 171.469 28.1202C170.976 28.1202 170.593 28.2263 170.319 28.4386C170.045 28.6509 169.908 28.9762 169.908 29.4145C169.908 29.8665 170.024 30.1816 170.257 30.3596C170.49 30.5377 170.826 30.6267 171.264 30.6267ZM184.461 33.4619C182.544 33.4482 181.078 32.9038 180.065 31.8286C179.051 30.7534 178.544 29.2365 178.544 27.2778C178.544 25.3329 179.051 23.8297 180.065 22.7682C181.078 21.7067 182.544 21.1691 184.461 21.1554C185.16 21.1554 185.756 21.1965 186.249 21.2786C186.556 21.3297 186.87 21.4073 187.193 21.5113C187.275 21.5381 187.385 21.5771 187.523 21.6286C187.684 21.6887 187.79 21.8421 187.79 22.0135V24.3476C187.79 24.5746 187.606 24.7585 187.379 24.7585C187.326 24.7585 187.274 24.7485 187.226 24.7289C187.199 24.7182 187.175 24.7086 187.152 24.7001C186.879 24.5967 186.615 24.5177 186.362 24.4632C185.917 24.3673 185.42 24.3193 184.872 24.3193C183.955 24.333 183.29 24.5864 182.879 25.0795C182.468 25.5726 182.263 26.2985 182.263 27.2573C182.263 28.2435 182.462 28.9968 182.859 29.5173C183.256 30.0377 183.893 30.298 184.77 30.298C185.263 30.298 185.739 30.2227 186.198 30.072C186.45 29.989 186.708 29.8812 186.971 29.7484C187.032 29.7174 187.108 29.6767 187.197 29.6263C187.394 29.5145 187.645 29.5839 187.757 29.7814C187.769 29.8037 187.78 29.8272 187.788 29.8515L188.522 32.0071C188.586 32.1965 188.505 32.4048 188.329 32.5004C188.163 32.591 188.028 32.6606 187.924 32.7092C186.857 33.211 185.702 33.4619 184.461 33.4619ZM193.955 29.2296L193.01 30.2363V32.7018C193.01 32.9287 192.826 33.1127 192.599 33.1127H189.846C189.619 33.1127 189.435 32.9287 189.435 32.7018V16.1423C189.435 15.9154 189.619 15.7314 189.846 15.7314H192.46H192.599C192.826 15.7314 193.01 15.9154 193.01 16.1423V16.2713V25.778L196.525 22.025C196.603 21.9421 196.711 21.895 196.825 21.895H199.966C200.193 21.895 200.377 22.079 200.377 22.3059C200.377 22.4109 200.337 22.5119 200.265 22.5882L196.297 26.7848L200.765 32.4473C200.906 32.6254 200.875 32.8838 200.697 33.0244C200.624 33.0816 200.535 33.1127 200.442 33.1127H197.216C197.09 33.1127 196.971 33.055 196.893 32.9562L193.955 29.2296Z" fill="white"/>
</svg>
