<?xml version="1.0" encoding="UTF-8"?>
<svg width="1200pt" height="1200pt" version="1.1" viewBox="0 0 1200 1200" xmlns="http://www.w3.org/2000/svg">
 <g>
  <rect width="1200" height="1200" fill="#131313"/>
  <path d="m827.47 472.29c0-0.75391-0.75781-0.75391 0 0-0.75391-0.75391-1.5117-1.5117-2.2656-1.5117l-0.75391-0.75391-212.36-148.88c-5.2891-3.7773-11.336-3.7773-16.625 0l-214.62 148.88-0.75391 0.75391c-0.75391 0-0.75391 0.75391-1.5117 0.75391-0.75391 0.75391-0.75391 0.75391-1.5117 1.5117 0 0.75391-0.75391 0.75391-0.75391 1.5117-0.75391 0.75391-0.75391 1.5117-0.75391 2.2656s0 0.75391-0.75391 1.5117c0 1.5117-0.75391 2.2656-0.75391 3.7773v255.43c0 4.5352 2.2656 9.0703 6.0469 12.09l213.87 148.88s0.75391 0 0.75391 0.75391l0.75391 0.75391h0.75391c2.2656 0.75391 3.7773 1.5117 6.0469 1.5117 1.5117 0 3.0234 0 3.7773-0.75391 0.75391 0 0.75391 0 1.5117-0.75391 0.75391 0 0.75391 0 1.5117-0.75391l0.75391-0.75391s0.75391 0 0.75391-0.75391l213.11-151.14c1.5117-1.5117 3.0234-2.2656 3.7773-3.7773zm-238.05 386.17-185.15-128.47v-219.91l70.281 49.121 114.87 80.105zm14.359-244.85-128.47-89.176-60.457-42.32 188.93-131.5 188.17 131.5z" fill="#6956e3"/>
 </g>
</svg>
