<?xml version="1.0" encoding="UTF-8" standalone="no"?>
<!DOCTYPE svg PUBLIC "-//W3C//DTD SVG 1.1//EN" "http://www.w3.org/Graphics/SVG/1.1/DTD/svg11.dtd">
<svg version="1.1" xmlns="http://www.w3.org/2000/svg" xmlns:xlink="http://www.w3.org/1999/xlink" preserveAspectRatio="xMidYMid meet" viewBox="0 0 60 60" width="60" height="60"><defs><path d="M1.56 29.54C1.75 29.09 3.15 27.63 3.28 27.51C3.4 27.38 3.09 27.32 3.09 27.25C3.15 27.13 3.4 26.94 3.98 26.49C4.55 26.05 11.08 24.97 12.35 24.84C13.62 24.71 16.29 24.65 16.29 24.65C16.29 24.65 24.35 19.13 28.92 18.81C33.49 18.43 47.45 18.81 48.03 18.81C48.66 18.81 49.74 18.75 49.87 18.81C49.99 18.88 49.87 19 49.93 19.07C49.99 19.13 55.01 19.51 55.01 19.64C55.07 19.76 54.82 20.14 54.75 20.21C54.69 20.21 54.31 20.14 54.25 20.21C54.12 20.27 53.93 20.65 53.93 20.78C53.93 20.91 53.99 20.78 53.99 20.91C53.99 21.03 53.99 20.97 53.99 21.16C54.06 21.29 56.21 22.87 56.85 23.7C57.42 24.52 57.67 24.9 57.67 25.03C57.67 25.16 57.42 25.35 57.48 25.41C57.55 25.48 57.67 25.41 57.74 25.54C57.8 25.67 57.61 27.44 57.67 27.63C57.74 27.82 58.05 27.89 58.12 28.33C58.24 29.48 58.12 32.27 58.12 32.27C58.18 32.39 57.67 32.9 57.67 33.16C57.67 33.41 57.99 33.47 57.93 33.66C57.86 33.79 57.55 34.93 57.36 35.06C57.17 35.19 56.98 35.19 56.66 35.06C56.34 34.93 56.21 34.81 55.9 34.68C55.83 34.68 55.77 34.62 55.71 34.62C55.52 34.62 55.45 34.74 55.45 34.74C55.52 35.06 55.33 35.44 55.01 35.5C54.84 35.56 53.52 35.96 53.36 36.01C53.42 35.76 53.42 35.44 53.42 35.19C53.42 31.89 50.76 29.22 47.45 29.22C44.15 29.22 41.49 31.89 41.49 35.19C41.49 35.38 41.49 35.5 41.49 35.7C41.3 35.82 41.17 35.95 41.17 35.95C40.79 36.08 18.51 36.33 19.02 36.27C19.59 36.2 17.5 36.39 17.5 36.39C17.48 36.38 17.38 36.28 17.37 36.27C17.43 35.89 17.5 35.5 17.5 35.12C17.5 31.82 14.83 29.16 11.53 29.16C8.23 29.16 5.56 31.82 5.56 35.12C5.56 35.63 5.63 36.08 5.75 36.52C5.56 36.52 5.25 36.58 5.12 36.52C4.67 36.39 4.8 36.46 3.85 36.14C2.96 35.82 2.64 35.44 2.14 35C1.63 34.55 1.63 33.98 1.5 33.66C1.44 33.41 1.18 32.52 1.18 32.01C1.18 31.44 1.31 31.57 1.37 31C1.44 30.43 1.31 30.05 1.56 29.54ZM34.25 24.97C34.25 24.97 42.88 24.71 43.46 24.59C44.03 24.46 44.53 24.02 44.53 23.13C44.53 22.3 43.27 20.53 42.76 19.76C42.63 19.57 42.38 19.45 42.12 19.45C42.12 19.45 35.01 19.45 35.01 19.45C34.86 20.55 34.33 24.42 34.25 24.97ZM19.15 24.52C18.07 25.29 18.32 25.98 18.32 25.98C18.48 25.96 19.75 25.81 19.91 25.79C19.91 25.79 19.78 25.48 19.91 25.35C20.03 25.16 20.22 25.22 20.29 25.16C20.35 25.1 20.1 24.78 20.29 24.52C20.48 24.27 21.56 23.76 21.81 23.7C22.07 23.64 22.57 23.51 22.89 23.7C23.21 23.89 23.34 24.14 23.4 24.46C23.46 24.78 23.53 25.35 23.4 25.48C23.27 25.67 23.02 25.67 23.02 25.67C23.6 25.62 26.5 25.41 31.71 25.03C32.59 21.72 33.08 19.88 33.17 19.51C33.3 19.45 32.35 19.26 28.86 19.51C25.3 19.83 20.22 23.7 19.15 24.52ZM29.24 26.36C29.38 26.36 30.49 26.31 30.63 26.3C30.57 26.3 30.57 25.92 30 25.92C29.43 25.92 29.39 26.28 29.24 26.36ZM29.17 26.75C29.17 26.75 29.24 27.19 29.87 27.19C30.51 27.19 30.63 26.68 30.63 26.68C30.34 26.69 29.32 26.74 29.17 26.75ZM41.55 25.73C41.69 25.72 42.81 25.67 42.95 25.67C42.95 25.6 42.88 25.22 42.19 25.29C41.55 25.35 41.68 25.64 41.55 25.73ZM41.49 26.11C41.49 26.11 41.74 26.62 42.31 26.56C42.95 26.49 42.95 26.05 42.95 26.05C42.66 26.06 41.63 26.1 41.49 26.11ZM2.52 29.09L5.37 28.71L6.45 28.02L8.04 27.63L9.12 26.75L3.6 27.44L2.52 29.09ZM55.13 26.62C55.58 26.87 57.29 27.57 57.42 27.38C57.55 27.25 57.42 25.6 57.42 25.54C57.42 25.48 57.29 25.6 57.23 25.54C57.17 25.48 57.29 25.22 57.17 25.16C57.04 25.1 54.12 25.1 53.99 25.29C53.93 25.54 54.75 26.3 55.13 26.62ZM16.42 35.25C16.42 37.92 14.26 40.14 11.53 40.14C8.86 40.14 6.64 37.98 6.64 35.25C6.64 32.52 8.86 30.36 11.53 30.36C14.19 30.36 16.42 32.52 16.42 35.25ZM9.5 35.38C9.82 35.25 10.07 35.12 10.26 34.93C10.32 34.74 10.39 34.62 10.45 34.49C10.39 34.43 10.26 34.3 10.07 34.24C9.18 33.98 8.61 33.92 8.29 33.85C8.1 34.3 8.04 34.74 8.04 35.25C7.97 35.38 8.04 35.57 8.04 35.7C8.42 35.63 8.99 35.5 9.5 35.38ZM12.42 33.73C12.35 33.85 12.29 33.98 12.23 34.11C12.35 34.17 12.42 34.24 12.48 34.36C12.54 34.11 12.67 33.73 12.8 33.54C12.86 33.35 13.24 32.71 13.43 32.33C13.12 32.08 12.74 31.89 12.35 31.82C12.42 32.33 12.54 33.47 12.42 33.73ZM10.39 33.92C10.51 34.05 10.58 34.11 10.7 34.24C10.77 34.17 10.89 34.11 10.96 34.05C10.77 33.85 10.45 33.6 10.32 33.47C10.2 33.35 9.69 32.78 9.43 32.39C9.05 32.65 8.8 32.97 8.61 33.28C9.12 33.41 10.13 33.73 10.39 33.92ZM10.07 32.01C10.2 32.33 10.51 32.9 10.77 33.28C10.96 33.54 11.21 33.79 11.4 33.92C11.47 33.92 11.47 33.92 11.53 33.92C11.66 33.92 11.78 33.92 11.91 33.98C11.97 33.92 12.04 33.73 12.04 33.54C12.04 32.65 11.97 32.01 11.91 31.76C11.78 31.7 11.66 31.7 11.53 31.7C11.02 31.7 10.51 31.82 10.07 32.01ZM12.67 34.62C12.8 34.81 12.86 35 12.86 35.25C12.86 35.25 12.86 35.25 12.86 35.25C12.93 35.25 13.05 35.25 13.24 35.19C14.26 34.81 14.83 34.49 14.96 34.43C14.83 33.79 14.51 33.22 14.07 32.78C13.81 33.03 13.31 33.54 12.99 33.98C12.86 34.24 12.74 34.43 12.67 34.62ZM15.08 35.12C14.64 35.31 13.5 35.7 13.18 35.63C13.05 35.63 12.93 35.57 12.86 35.57C12.86 35.7 12.8 35.76 12.74 35.89C12.99 35.89 13.31 35.95 13.5 35.95C13.75 36.01 14.51 36.2 14.96 36.33C15.02 36.01 15.08 35.63 15.08 35.25C15.08 35.19 15.08 35.19 15.08 35.12ZM14.58 37.09C14.58 37.09 14.58 37.03 14.64 37.03C14.32 36.84 13.75 36.52 13.18 36.39C12.93 36.33 12.67 36.27 12.48 36.27C12.48 36.27 12.42 36.33 12.35 36.33C12.23 36.39 12.16 36.46 12.04 36.52C11.97 36.52 11.97 36.52 11.91 36.58C11.91 36.65 11.97 36.77 12.04 36.96C12.67 37.85 13.12 38.23 13.24 38.42C13.31 38.3 13.37 38.23 13.43 38.23C13.88 37.92 14.26 37.54 14.58 37.09ZM11.78 36.9C11.78 36.77 11.72 36.65 11.72 36.52C11.66 36.52 11.59 36.52 11.53 36.52C11.47 36.52 11.4 36.52 11.34 36.52C11.4 36.77 11.47 37.09 11.53 37.35C11.59 37.6 11.66 38.3 11.66 38.74C12.1 38.74 12.48 38.68 12.86 38.49C12.54 38.04 11.85 37.22 11.78 36.9ZM10.89 36.39C10.77 36.33 10.58 36.2 10.51 36.08C10.45 36.14 10.32 36.2 10.2 36.39C9.62 37.16 9.37 37.73 9.31 37.98C9.75 38.36 10.32 38.68 10.96 38.74C10.96 38.36 11.08 37.73 11.02 37.22C11.02 36.9 10.96 36.58 10.89 36.39ZM10.26 35.76C10.2 35.63 10.2 35.5 10.2 35.44C10.01 35.57 9.69 35.82 9.5 35.95C9.31 36.08 8.67 36.39 8.23 36.58C8.36 36.96 8.61 37.35 8.86 37.6C9.12 37.16 9.69 36.14 9.94 35.95C10.07 35.89 10.2 35.82 10.26 35.76ZM52.28 35.25C52.28 37.92 50.12 40.14 47.39 40.14C44.73 40.14 42.5 37.98 42.5 35.25C42.5 32.52 44.73 30.36 47.39 30.36C50.06 30.36 52.28 32.52 52.28 35.25ZM45.36 35.38C45.68 35.25 45.93 35.12 46.12 34.93C46.19 34.74 46.25 34.62 46.31 34.49C46.25 34.43 46.12 34.3 45.93 34.24C45.04 33.98 44.47 33.92 44.15 33.85C43.96 34.3 43.9 34.74 43.9 35.25C43.9 35.38 43.9 35.57 43.9 35.7C44.28 35.63 44.85 35.5 45.36 35.38ZM48.28 33.73C48.22 33.85 48.15 33.98 48.09 34.11C48.22 34.17 48.28 34.24 48.34 34.36C48.41 34.11 48.53 33.73 48.66 33.54C48.72 33.35 49.1 32.71 49.3 32.33C48.98 32.08 48.6 31.89 48.22 31.82C48.28 32.33 48.41 33.47 48.28 33.73ZM46.25 33.92C46.38 34.05 46.44 34.11 46.57 34.24C46.63 34.17 46.76 34.11 46.82 34.05C46.63 33.85 46.31 33.6 46.19 33.47C46.06 33.35 45.55 32.78 45.3 32.39C44.98 32.65 44.66 32.97 44.47 33.28C44.98 33.41 45.99 33.73 46.25 33.92ZM45.93 32.01C46.06 32.33 46.38 32.9 46.63 33.28C46.82 33.54 47.07 33.79 47.26 33.92C47.33 33.92 47.33 33.92 47.39 33.92C47.52 33.92 47.65 33.92 47.77 33.98C47.84 33.92 47.9 33.73 47.9 33.54C47.9 32.65 47.84 32.01 47.77 31.76C47.65 31.7 47.52 31.7 47.39 31.7C46.88 31.7 46.38 31.82 45.93 32.01ZM48.6 34.62C48.72 34.81 48.79 35 48.79 35.25C48.79 35.25 48.79 35.25 48.79 35.25C48.85 35.25 48.98 35.25 49.17 35.19C50.18 34.81 50.76 34.49 50.88 34.43C50.76 33.79 50.44 33.22 49.99 32.78C49.68 33.03 49.17 33.54 48.91 33.98C48.79 34.24 48.66 34.43 48.6 34.62ZM50.95 35.12C50.5 35.31 49.36 35.7 49.04 35.63C48.91 35.63 48.79 35.57 48.72 35.57C48.72 35.7 48.66 35.76 48.6 35.89C48.85 35.89 49.17 35.95 49.36 35.95C49.61 36.01 50.37 36.2 50.82 36.33C50.88 36.01 50.95 35.63 50.95 35.25C50.95 35.19 50.95 35.19 50.95 35.12ZM50.44 37.09C50.44 37.09 50.44 37.03 50.5 37.03C50.18 36.84 49.61 36.52 49.04 36.39C48.79 36.33 48.53 36.27 48.34 36.27C48.34 36.27 48.28 36.33 48.22 36.33C48.09 36.39 48.03 36.46 47.9 36.52C47.84 36.52 47.84 36.52 47.77 36.58C47.77 36.65 47.84 36.77 47.9 36.96C48.53 37.85 48.98 38.23 49.1 38.42C49.23 38.3 49.23 38.23 49.3 38.23C49.74 37.92 50.12 37.54 50.44 37.09ZM47.65 36.9C47.65 36.77 47.58 36.65 47.58 36.52C47.52 36.52 47.45 36.52 47.39 36.52C47.33 36.52 47.26 36.52 47.2 36.52C47.26 36.77 47.33 37.09 47.39 37.35C47.45 37.6 47.52 38.3 47.52 38.74C47.96 38.74 48.34 38.68 48.72 38.49C48.41 38.04 47.71 37.22 47.65 36.9ZM46.76 36.39C46.63 36.33 46.44 36.2 46.38 36.08C46.31 36.14 46.19 36.2 46.06 36.39C45.49 37.16 45.23 37.73 45.17 37.98C45.61 38.36 46.19 38.68 46.82 38.74C46.82 38.36 46.95 37.73 46.88 37.22C46.88 36.9 46.82 36.58 46.76 36.39ZM46.12 35.76C46.06 35.63 46.06 35.5 46.06 35.44C45.87 35.57 45.55 35.82 45.36 35.95C45.17 36.08 44.53 36.39 44.09 36.58C44.22 36.96 44.47 37.35 44.73 37.6C45.04 37.16 45.55 36.14 45.8 35.95C45.93 35.89 46.06 35.82 46.12 35.76ZM49.42 23.76C50.69 24.46 55.96 23.95 55.96 23.95C55.72 23.69 54.51 22.4 52.34 20.08L45.68 19.76C47.54 21.92 48.79 23.25 49.42 23.76Z" id="b2Njcl5fnm"></path></defs><g><g><g><use xlink:href="#b2Njcl5fnm" opacity="1" fill="#000000" fill-opacity="1"></use><g><use xlink:href="#b2Njcl5fnm" opacity="1" fill-opacity="0" stroke="#000000" stroke-width="1" stroke-opacity="0"></use></g></g></g></g></svg>