<svg xmlns="http://www.w3.org/2000/svg" width="200" height="16" viewBox="0 0 200 16"><path d="M68.364,3.122a2.443,2.443,0,0,0,.407-.74l2.378.108.983-.788c.546.21.735,1.254,1.984.515l.577-.51,4.863.221.746-.706c1.6-.223,3.343.152,5.067.045l.69-.653,8.027.364,1-.769,1.323.911L97.738.2l13.838.628L112.507,0l26.942,1.222.977,1.043,1.826-.824,4.613.209.828.741c1.084.641,2.048-.555,3.164-.689l.911.911,6.293.285.893-.774.564.636c.107,0,.187.23.294.235l12.962.588,1.066,1.066,1.612-.852,3.147.143.684.771,2.467.112.855-.738.824.851,1.591.072.911-.791,1.4,1.618c.921.227,1.77.506,2.549-.569l4.13.187.807.832c.869.206,1.8-.14,2.81.479l-.774.927L200,9.556c-2.4.5-12.421.177-21.019-.676l-.58-.674-2.485-.113-.874.756-4.881-.221-.8-.869-.8.759a22.679,22.679,0,0,1-3.361-.152l-.649-.751-4.166-.189-.87.664-3.147-.143a3.086,3.086,0,0,0-1.139-.727,3.007,3.007,0,0,0-1.331-.162l-.929.79-4.827-.219-.949.845-5.7-.259-.6.583c-.107,0-.224.212-.331.207l-26-1.179-1.151.947-1.57-1a1.737,1.737,0,0,0-1.209-.088,1.791,1.791,0,0,0-.985.728L88.458,7.456l-1,.843-3.236-.147L83.413,7.3a1.336,1.336,0,0,0-.789.023,1.378,1.378,0,0,0-.647.467c-.69.653-1.206.13-1.766-.6l-.942.679-2.253-.1-1.056.84-6.4-.29-1,.843-8.1-.367-.931.846-7.348-.333-.729.726-2.414-.11-1.057.859-.667-.752L43.9,9.875l-.821.777-4.094-.186-.784.76-4.845-.22-.949.845L29.132,11.7l-.711.726-3.307-.15c-.355.336-.543.549-.765.724-.65.544-1.617-.314-2.225.509s-1.251.35-1.807.362-1.055-.048-1.485.4c-.753.872-2.229-.249-2.823,1.111l-4.13-.187-.892-.929c-.183.528-.365,1.019-.566,1.528a5.706,5.706,0,0,1-2.815.057L7.12,14.183l-.961.7-.793-.739-.89.718-2.5-.113L.029,12.436a4.076,4.076,0,0,1,.2-1.841l2.664.121.829.722,3.325.151.728-.689,2.378.108.985-.843,2.378.108.949-.845,4.058.184.765-.724L21.74,9l.859-.831,2.271.1,1.146-.836,3.719.169,3.1-1.709,5.363.243.931-.827,6.526.3c.205-.194.41-.388.748-.743L50.5,5.05l.914-.865,4.076.185L56.4,3.5l4.9.222.8-.778,4,.182.948-.808a5.026,5.026,0,0,0,1.166.811c.141.469-.048,1.126.781.59A2.557,2.557,0,0,0,68.364,3.122Z" fill="#3841ec"/></svg>