<svg width="151" height="60" viewBox="0 0 151 60" fill="none" xmlns="http://www.w3.org/2000/svg">
<path d="M53.5137 39.6938H57.999V32.0555H59.9492L64.7132 39.6938H69.505L64.2396 31.2807C66.5798 30.5888 68.3349 29.0113 68.3349 26.0224V25.9117C68.3349 21.8158 65.354 19.9062 60.6457 19.9062H53.5137V39.6938ZM57.999 29.0113V23.338H60.5342C62.7073 23.338 63.9331 24.0298 63.9331 26.0501V26.1608C63.9331 28.0704 62.7909 29.0113 60.5342 29.0113H57.999Z" fill="white"/>
<path d="M77.2033 39.9981C81.1872 39.9981 83.6945 38.2547 84.1681 35.1274H80.3514C80.1006 36.3451 79.1813 37.1477 77.3148 37.1477C75.1139 37.1477 73.8045 35.7639 73.6931 33.3562H84.1961V32.2492C84.1961 27.0739 80.8529 24.8877 77.0919 24.8877C72.8573 24.8877 69.5977 27.8489 69.5977 32.4153V32.6366C69.5977 37.2584 72.8015 39.9981 77.2033 39.9981ZM73.7487 30.8931C74.0552 28.8452 75.281 27.6552 77.0919 27.6552C79.0142 27.6552 80.1286 28.7068 80.2679 30.8931H73.7487Z" fill="white"/>
<path d="M86.1152 39.694H90.127V18.6611H86.1152V39.694Z" fill="white"/>
<path d="M97.8241 39.9981C100.22 39.9981 101.696 38.8911 102.448 37.4244V39.6937H106.46V25.2197H102.448V33.7159C102.448 35.8469 101.111 36.8985 99.4124 36.8985C97.6853 36.8985 96.8766 35.9576 96.8766 33.9927V25.2197H92.8652V34.5462C92.8652 38.3376 94.9824 39.9981 97.8241 39.9981Z" fill="white"/>
<path d="M109.199 39.6937H113.239V31.1422C113.239 29.1773 114.493 28.1809 116.053 28.1809C117.474 28.1809 118.338 29.0112 118.338 30.8655V39.6937H122.349V31.1422C122.349 29.1773 123.603 28.1809 125.163 28.1809C126.611 28.1809 127.448 29.0112 127.448 30.8655V39.6937H131.459V30.4227C131.459 26.5759 129.37 24.8877 126.667 24.8877C124.829 24.8877 122.935 25.6625 121.764 27.4061C121.068 25.6903 119.619 24.8877 117.697 24.8877C115.523 24.8877 113.963 26.0777 113.239 27.4338V25.2198H109.199V39.6937Z" fill="white"/>
<path d="M140.787 39.9981C144.772 39.9981 147.279 38.2547 147.752 35.1274H143.936C143.685 36.3451 142.765 37.1477 140.899 37.1477C138.698 37.1477 137.389 35.7639 137.278 33.3562H147.781V32.2492C147.781 27.0739 144.437 24.8877 140.676 24.8877C136.441 24.8877 133.182 27.8489 133.182 32.4153V32.6366C133.182 37.2584 136.386 39.9981 140.787 39.9981ZM137.333 30.8931C137.64 28.8452 138.866 27.6552 140.676 27.6552C142.598 27.6552 143.713 28.7068 143.853 30.8931H137.333Z" fill="white"/>
<path fill-rule="evenodd" clip-rule="evenodd" d="M38.0772 21.09L37.8064 20.6095C37.4571 20.0285 36.9643 19.5456 36.3748 19.2066L23.393 11.7689C22.8052 11.4302 22.1379 11.2512 21.4583 11.25H20.8973C20.2177 11.2512 19.5505 11.4302 18.9626 11.7689L5.98092 19.2258C5.39467 19.5625 4.90767 20.0464 4.56861 20.6287L4.29776 21.1092C3.95676 21.6931 3.7766 22.356 3.77539 23.031V37.9255C3.7766 38.6006 3.95676 39.2634 4.29776 39.8474L4.56861 40.3279C4.91644 40.9035 5.40146 41.3853 5.98092 41.7308L18.9819 49.1684C19.5669 49.5142 20.2361 49.6937 20.9166 49.6873H21.4583C22.1379 49.6861 22.8052 49.5071 23.393 49.1684L36.3748 41.7116C36.9668 41.3824 37.4557 40.8968 37.787 40.3087L38.0772 39.8282C38.4141 39.2425 38.594 38.5807 38.5996 37.9063V23.0118C38.5984 22.3368 38.4183 21.6739 38.0772 21.09ZM20.8973 15.0937H21.4583L32.7956 21.5896L21.1875 28.2392L9.57945 21.5896L20.8973 15.0937ZM23.1222 44.8828L34.44 38.3869L34.7302 37.9064V24.9146L23.1222 31.5834V44.8828Z" fill="white"/>
</svg>
