<?xml version="1.0" encoding="UTF-8" standalone="no"?>
<!DOCTYPE svg PUBLIC "-//W3C//DTD SVG 1.1//EN" "http://www.w3.org/Graphics/SVG/1.1/DTD/svg11.dtd">
<svg version="1.1" xmlns="http://www.w3.org/2000/svg" xmlns:xlink="http://www.w3.org/1999/xlink" preserveAspectRatio="xMidYMid meet" viewBox="0 0 60 60" width="60" height="60"><defs><path d="M57.11 25.29C57.11 23.45 55.26 24.76 55.26 24.76C53.15 25.03 40.49 22.13 40.49 22.13C33.37 20.81 27.28 22.13 27.28 22.13C27.05 22.17 26.78 22.25 26.48 22.34C27.12 22.22 27.35 22.55 27.35 22.55C25.77 23.6 19.97 26.65 19.97 26.65C19.79 26.65 18.91 26.65 17.33 26.65C17.33 26.63 17.33 26.61 17.33 26.61C17.95 26.46 17.82 26.3 18.11 26.13C17.54 26.42 17.2 26.61 17.2 26.61C8.77 27.13 1.79 31.61 1.79 31.61C1.79 31.93 1.79 34.46 1.79 34.78C3.37 36.62 10.09 36.09 10.09 36.09C10.13 36.09 10.46 36.09 10.5 36.09C10.15 35.42 9.96 34.66 9.96 33.85C9.96 31.16 12.14 28.98 14.83 28.98C17.52 28.98 19.71 31.16 19.71 33.85C19.71 34.59 19.53 35.3 19.24 35.93C21.82 35.88 42.52 35.5 45.1 35.45C44.7 34.75 44.47 33.93 44.47 33.06C44.47 30.37 46.66 28.19 49.35 28.19C52.04 28.19 54.22 30.37 54.22 33.06C54.22 33.85 54.03 34.6 53.69 35.26C56.14 34.95 57.65 33.98 57.65 33.98C58.44 33.46 58.17 28.45 58.17 28.45C57.64 28.45 57.32 25.92 57.11 25.29ZM3.14 32.64C3.3 32.88 4.54 34.84 4.7 35.08C4.7 35.08 3.14 35.3 2.81 34.75C2.87 34.33 1.7 32.86 3.14 32.64ZM9.25 28.72L5.03 30.03L9.25 28.19L9.25 28.72ZM9.45 33.49L9.33 34.11C8.6 34.11 8.19 34.11 8.11 34.11C7.11 34.73 9.11 35.32 9.11 35.32C8.96 35.31 8.22 35.24 6.89 35.12L8.33 32.12C9.2 31.79 9.68 31.61 9.78 31.57C7.89 32.68 8.22 33.49 8.22 33.49C8.39 33.49 8.79 33.49 9.45 33.49ZM21.28 27.13C21.28 27.13 29.98 18.97 41.84 24.24C41.84 24.24 42.1 24.5 41.58 24.76C37.52 25.24 29.98 27.66 21.28 27.13Z" id="fyAhqreAv"></path><path d="M10.5 34.11C10.5 36.51 12.44 38.46 14.84 38.46C17.25 38.46 19.19 36.51 19.19 34.11C19.19 31.71 17.25 29.76 14.84 29.76C12.44 29.76 10.5 31.71 10.5 34.11ZM11.75 34.11C11.75 32.39 13.14 31 14.86 31C16.57 31 17.96 32.39 17.96 34.11C17.96 35.82 16.57 37.21 14.86 37.21C13.14 37.21 11.75 35.82 11.75 34.11Z" id="a1cut5Aq2J"></path><path d="M44.68 33.18C44.68 35.75 46.77 37.84 49.34 37.84C51.91 37.84 54 35.75 54 33.18C54 30.6 51.91 28.52 49.34 28.52C46.77 28.52 44.68 30.6 44.68 33.18ZM46.02 33.17C46.02 31.33 47.51 29.84 49.35 29.84C51.19 29.84 52.68 31.33 52.68 33.17C52.68 35.01 51.19 36.5 49.35 36.5C47.51 36.5 46.02 35.01 46.02 33.17Z" id="d2uwlUwO9S"></path></defs><g><g><g><use xlink:href="#fyAhqreAv" opacity="1" fill="#000000" fill-opacity="1"></use><g><use xlink:href="#fyAhqreAv" opacity="1" fill-opacity="0" stroke="#000000" stroke-width="1" stroke-opacity="0"></use></g></g><g><use xlink:href="#a1cut5Aq2J" opacity="1" fill="#000000" fill-opacity="1"></use><g><use xlink:href="#a1cut5Aq2J" opacity="1" fill-opacity="0" stroke="#000000" stroke-width="1" stroke-opacity="0"></use></g></g><g><use xlink:href="#d2uwlUwO9S" opacity="1" fill="#000000" fill-opacity="1"></use><g><use xlink:href="#d2uwlUwO9S" opacity="1" fill-opacity="0" stroke="#000000" stroke-width="1" stroke-opacity="0"></use></g></g></g></g></svg>