<?xml version="1.0" encoding="UTF-8" standalone="no"?>
<!DOCTYPE svg PUBLIC "-//W3C//DTD SVG 1.1//EN" "http://www.w3.org/Graphics/SVG/1.1/DTD/svg11.dtd">
<svg version="1.1" xmlns="http://www.w3.org/2000/svg" xmlns:xlink="http://www.w3.org/1999/xlink" preserveAspectRatio="xMidYMid meet" viewBox="0 0 60 60" width="60" height="60"><defs><path d="M12.62 31.67C12.62 33.23 13.89 34.49 15.44 34.49C17 34.49 18.26 33.23 18.26 31.67C18.26 30.11 17 28.85 15.44 28.85C13.89 28.85 12.62 30.11 12.62 31.67ZM13.47 31.67C13.47 30.58 14.35 29.7 15.44 29.7C16.53 29.7 17.41 30.58 17.41 31.67C17.41 32.76 16.53 33.64 15.44 33.64C14.35 33.64 13.47 32.76 13.47 31.67Z" id="b3vNKty87I"></path><path d="M41.71 31.67C41.71 33.23 42.97 34.49 44.53 34.49C46.08 34.49 47.35 33.23 47.35 31.67C47.35 30.11 46.08 28.85 44.53 28.85C42.97 28.85 41.71 30.11 41.71 31.67ZM42.56 31.67C42.56 30.58 43.44 29.7 44.53 29.7C45.62 29.7 46.5 30.58 46.5 31.67C46.5 32.76 45.62 33.64 44.53 33.64C43.44 33.64 42.56 32.76 42.56 31.67Z" id="d1b49JLgUZ"></path><path d="M55.3 26.58L54.92 23.78L55.75 23.88L55.44 21.44L51.27 21.44L49.14 23.07L51.82 23.4C51.57 23.92 51.43 24.21 51.4 24.27C51.02 24.15 50.62 24.03 50.2 23.9C48.35 23.32 44.5 22.18 39.47 20.93C37.29 20.38 35.82 20.05 33.84 20.04C32.62 20.02 31.39 20.14 30.19 20.37C28.98 20.6 27.78 20.95 26.61 21.43C25.96 21.72 20.79 24.06 20.14 24.35C18.74 24.36 17.33 24.45 15.94 24.64C14.5 24.83 13.06 25.11 11.66 25.49C11.65 25.49 11.61 25.5 11.61 25.5C10.12 26.03 8.69 26.73 7.38 27.6C6.44 28.21 5.55 28.91 4.74 29.68C4.72 29.69 4.66 29.76 4.54 29.87L4.54 34.05L11.48 34.05C11.48 34.02 11.48 34 11.48 34C12.28 35.35 13.76 36.27 15.44 36.27C17.1 36.27 18.56 35.38 19.37 34.05C21.49 34.05 38.48 34.05 40.6 34.05C41.41 35.38 42.87 36.27 44.53 36.27C46.2 36.27 47.66 35.37 48.46 34.04C48.97 33.98 51.51 33.69 56.07 33.16L56.07 27.48L55.3 26.58ZM54.32 27.41C53.59 27.48 52.86 27.44 52.17 27.27C52.05 27.24 51.94 27.21 51.82 27.17C51.95 27.15 52.6 27.01 53.77 26.78C54.1 27.16 54.28 27.37 54.32 27.41ZM54.69 22.29L54.77 22.9L51.31 22.48L51.56 22.29L54.69 22.29ZM54.04 23.67L54.28 25.42L54.01 25.11C53.91 25.07 53.85 25.06 53.84 25.05C53.41 24.91 52.86 24.74 52.22 24.53C52.25 24.46 52.42 24.12 52.71 23.51L54.04 23.67ZM10.17 27.89C9.64 28.2 9.11 28.29 8.66 28.3C9.43 27.84 10.23 27.43 11.06 27.08C10.85 27.37 10.56 27.66 10.17 27.89ZM12.12 31.67C12.12 29.84 13.61 28.35 15.44 28.35C17.27 28.35 18.76 29.84 18.76 31.67C18.76 33.5 17.27 34.99 15.44 34.99C13.61 34.99 12.12 33.5 12.12 31.67ZM41.21 31.67C41.21 29.84 42.7 28.35 44.53 28.35C46.36 28.35 47.85 29.84 47.85 31.67C47.85 33.5 46.36 34.99 44.53 34.99C42.7 34.99 41.21 33.5 41.21 31.67ZM49.12 31.67C49.12 29.14 47.06 27.08 44.53 27.08C41.99 27.08 39.93 29.14 39.93 31.67C39.93 32.05 39.99 32.42 40.07 32.77C38.06 32.77 21.92 32.77 19.9 32.77C19.99 32.42 20.04 32.05 20.04 31.67C20.04 29.14 17.98 27.08 15.44 27.08C12.91 27.08 10.85 29.14 10.85 31.67C10.85 32.05 10.9 32.42 10.99 32.77C10.64 32.77 8.92 32.77 5.81 32.77C5.81 31.36 5.81 30.58 5.81 30.42C6.36 29.92 6.95 29.46 7.56 29.03C7.81 29.1 8.17 29.16 8.6 29.16C9.19 29.16 9.9 29.04 10.6 28.62C11.58 28.04 12.05 27.19 12.26 26.66C13.52 26.33 14.81 26.07 16.11 25.9C17.48 25.72 18.89 25.63 20.28 25.62C20.29 25.62 20.33 25.62 20.42 25.62C24.43 23.81 26.67 22.8 27.11 22.6C28.18 22.17 29.3 21.84 30.43 21.62C31.55 21.41 32.7 21.31 33.84 21.32C35.67 21.33 37.07 21.65 39.16 22.17C44.16 23.41 47.98 24.55 49.82 25.12C51.06 25.5 52.1 25.83 52.89 26.09C52.65 26.14 51.41 26.39 49.18 26.84C49.79 27.17 50.12 27.36 50.19 27.4C50.75 27.71 51.35 27.94 51.96 28.09C52.52 28.23 53.09 28.3 53.67 28.3C54.05 28.3 54.42 28.26 54.8 28.2C54.8 28.46 54.8 29.73 54.8 32.02L49.01 32.69C49.08 32.24 49.12 31.9 49.12 31.67Z" id="d2qLflu4lo"></path><path d="M36.5 22.02C35.09 21.8 33.66 21.75 32.24 21.88C31.04 21.98 30.11 22.2 29.66 22.31C27.81 22.79 26.06 23.65 24.44 24.86C24.37 24.91 24.01 25.17 23.38 25.65L36.23 25.4L36.94 22.09C36.67 22.05 36.53 22.03 36.5 22.02ZM26.12 24.75C27.31 24.02 28.57 23.48 29.87 23.14C30.3 23.03 31.18 22.83 32.32 22.72C32.81 22.68 33.3 22.66 33.79 22.66C34.5 22.66 35.21 22.7 35.92 22.8C35.89 22.91 35.77 23.5 35.54 24.57C29.89 24.67 26.75 24.73 26.12 24.75Z" id="b1nHXpyraK"></path><path d="M38.22 22.34C38.19 22.34 38.04 22.31 37.77 22.25L37.37 25.31C37.68 25.29 37.85 25.28 37.88 25.28C38.59 25.23 39.32 25.17 40.03 25.09C40.69 25.01 41.35 24.92 41.99 24.82C42.06 24.81 42.41 24.75 43.03 24.65C42.51 24.29 42.23 24.09 42.17 24.05C41.48 23.57 40.73 23.17 39.95 22.86C39.39 22.64 38.81 22.47 38.22 22.34ZM38.35 24.39C38.36 24.28 38.48 23.39 38.49 23.28C38.88 23.38 39.27 23.51 39.64 23.65C40.01 23.8 40.36 23.96 40.71 24.15C40.45 24.18 40.19 24.21 39.94 24.24C39.41 24.3 38.88 24.35 38.35 24.39Z" id="a4ZlnTzqY"></path><path d="M21.98 26.62C21.98 26.62 21.98 26.62 21.98 26.62C21.98 29.39 21.98 30.94 21.98 31.25C21.98 31.25 21.98 31.25 21.98 31.25C21.72 31.25 21.58 31.25 21.55 31.25C21.55 31.25 21.55 31.25 21.55 31.25C21.55 28.47 21.55 26.93 21.55 26.62C21.55 26.62 21.55 26.62 21.55 26.62C21.81 26.62 21.95 26.62 21.98 26.62Z" id="c1iZqk27Qw"></path><path d="M34.76 31.17C34.76 31.17 34.76 31.17 34.76 31.17C35.87 28.39 36.49 26.85 36.61 26.54C36.61 26.54 36.61 26.54 36.61 26.54C36.85 26.63 36.98 26.69 37.01 26.7C37.01 26.7 37.01 26.7 37.01 26.7C35.9 29.47 35.28 31.02 35.16 31.33C35.16 31.33 35.16 31.33 35.16 31.33C34.92 31.23 34.79 31.18 34.76 31.17Z" id="f240OzvBCW"></path></defs><g><g><g><use xlink:href="#b3vNKty87I" opacity="1" fill="#000000" fill-opacity="1"></use><g><use xlink:href="#b3vNKty87I" opacity="1" fill-opacity="0" stroke="#000000" stroke-width="1" stroke-opacity="0"></use></g></g><g><use xlink:href="#d1b49JLgUZ" opacity="1" fill="#000000" fill-opacity="1"></use><g><use xlink:href="#d1b49JLgUZ" opacity="1" fill-opacity="0" stroke="#000000" stroke-width="1" stroke-opacity="0"></use></g></g><g><use xlink:href="#d2qLflu4lo" opacity="1" fill="#000000" fill-opacity="1"></use><g><use xlink:href="#d2qLflu4lo" opacity="1" fill-opacity="0" stroke="#000000" stroke-width="1" stroke-opacity="0"></use></g></g><g><use xlink:href="#b1nHXpyraK" opacity="1" fill="#000000" fill-opacity="1"></use><g><use xlink:href="#b1nHXpyraK" opacity="1" fill-opacity="0" stroke="#000000" stroke-width="1" stroke-opacity="0"></use></g></g><g><use xlink:href="#a4ZlnTzqY" opacity="1" fill="#000000" fill-opacity="1"></use><g><use xlink:href="#a4ZlnTzqY" opacity="1" fill-opacity="0" stroke="#000000" stroke-width="1" stroke-opacity="0"></use></g></g><g><use xlink:href="#c1iZqk27Qw" opacity="1" fill="#000000" fill-opacity="1"></use><g><use xlink:href="#c1iZqk27Qw" opacity="1" fill-opacity="0" stroke="#000000" stroke-width="1" stroke-opacity="0"></use></g></g><g><use xlink:href="#f240OzvBCW" opacity="1" fill="#000000" fill-opacity="1"></use><g><use xlink:href="#f240OzvBCW" opacity="1" fill-opacity="0" stroke="#000000" stroke-width="1" stroke-opacity="0"></use></g></g></g></g></svg>