<svg width="149" height="60" viewBox="0 0 149 60" fill="none" xmlns="http://www.w3.org/2000/svg">
<path d="M49.4223 26.192C49.4223 23.633 46.9576 20.9183 42.6842 20.9183C37.8835 20.9183 32.6178 24.4565 31.8028 31.5265C30.9802 38.6744 35.4007 41.8328 39.8423 41.8328C44.2824 41.8328 46.6198 40.0912 48.9936 37.7564C46.944 35.1577 44.3006 36.367 43.8007 36.6202C43.2477 36.8992 42.5221 37.2851 41.0481 37.2851C39.3272 37.2851 37.5821 36.5013 37.5821 33.2849C48.5831 32.2235 49.4223 28.7525 49.4223 26.192ZM43.9703 26.6205C43.8991 27.4089 43.5779 28.7738 38.0108 29.5242C39.1848 25.3272 41.4238 25.0162 42.4585 25.0162C43.428 25.0162 44.0461 25.7725 43.9703 26.6205ZM25.3373 27.3022C25.3373 27.3022 22.9711 34.7719 22.7878 35.3987C22.7242 34.7719 20.9927 21.3546 20.9927 21.3546C16.9631 21.3546 14.8074 24.2369 13.6713 27.2992C13.6713 27.2992 10.793 34.7902 10.5597 35.417C10.5461 34.8298 10.1174 27.377 10.1174 27.377C9.87347 23.6314 6.47714 21.3637 3.72461 21.3637L7.03462 41.691C11.2626 41.6772 13.5258 38.7995 14.7196 35.7433C14.7196 35.7433 17.2509 29.1337 17.3555 28.8334C17.3812 29.1201 19.1764 41.691 19.1764 41.691C23.4074 41.691 25.6903 38.9963 26.9189 36.0499L32.8557 21.3637C28.6747 21.3637 26.4735 24.2384 25.3373 27.3022ZM64.9619 20.8909C62.3609 20.8909 60.3567 22.3138 58.6692 24.4168L58.6722 24.4015L60.172 12.1875C56.7089 12.1875 53.8791 15.2224 53.3413 19.7242L50.707 41.5324C52.7051 41.5324 54.8214 40.9483 55.9635 39.4705C56.9861 40.7927 58.5056 41.8465 60.7551 41.8465C66.595 41.8465 70.6094 35.0128 70.6094 28.5969C70.6094 22.7423 67.7796 20.8909 64.9619 20.8909ZM64.4257 31.368C63.8198 34.9549 61.8398 37.3735 59.9219 37.3735C57.989 37.3735 57.1725 36.5135 57.1725 36.5135C57.533 33.378 57.7723 31.4549 58.4768 29.7987C59.1797 28.1425 60.8415 25.4996 62.5805 25.4996C64.2711 25.4996 65.0317 27.7826 64.4257 31.368ZM85.2492 21.3653H81.1606L81.1802 21.1502C81.4589 18.463 82.0982 17.0524 84.1676 16.8358C85.5809 16.6895 86.2202 15.9498 86.3687 15.1507C86.4853 14.5238 86.8807 12.308 86.8807 12.308C78.6791 12.2607 76.1084 15.8247 75.4525 21.2417L75.4373 21.3637L75.357 21.3668C74.0254 21.3668 72.5636 22.8842 72.3075 24.8118L72.2182 25.5209H74.945L72.656 44.5977L71.9622 48.026L72.2439 48.0352C76.072 47.8887 78.5353 44.8493 79.0791 40.4237L80.8666 25.5209H82.1482C83.4025 25.5209 84.8765 24.2552 85.1492 22.1399L85.2492 21.3653ZM106.467 21.0114C101.755 21.0114 97.3152 24.5022 95.95 29.9939C94.5867 35.4841 96.6596 41.967 103.583 41.967C110.51 41.967 114.489 35.2095 114.489 29.5989C114.489 23.9852 110.721 21.0114 106.467 21.0114ZM108.377 31.2048C108.133 33.6952 107.042 37.4574 104.061 37.4574C101.067 37.4574 101.493 33.0425 101.782 30.9471C102.093 28.7006 103.347 25.5209 106.015 25.5209C108.425 25.5209 108.652 28.3926 108.377 31.2048ZM137.755 27.3022C137.755 27.3022 135.388 34.7719 135.207 35.3987C135.142 34.7719 133.41 21.3546 133.41 21.3546C129.381 21.3546 127.226 24.2369 126.089 27.2992C126.089 27.2992 123.212 34.7902 122.979 35.417C122.965 34.8298 122.536 27.377 122.536 27.377C122.292 23.6314 118.894 21.3637 116.143 21.3637L119.452 41.691C123.68 41.6772 125.945 38.7995 127.138 35.7433C127.138 35.7433 129.67 29.1337 129.774 28.8334C129.8 29.1201 131.594 41.691 131.594 41.691C135.825 41.691 138.108 38.9963 139.336 36.0499L145.275 21.3637C141.092 21.3637 138.891 24.2384 137.755 27.3022ZM89.0969 12.308L85.6643 40.1797L85.6551 40.1751L84.9583 43.6217L85.2386 43.6308C88.9348 43.585 91.5571 40.32 92.051 36.2023L94.0335 20.2046C94.6351 15.3322 91.7495 12.308 89.0969 12.308Z" fill="white"/>
</svg>
