<svg width="108" height="31" viewBox="0 0 108 31" fill="none" xmlns="http://www.w3.org/2000/svg">
<g clip-path="url(#clip0_45_431)">
<path d="M34.2715 20.558L30.0328 3.88281H25.4279L21.3564 20.4561L17.6193 3.88281H12.1465L17.9527 27.8715H23.1587L27.5307 11.2974L31.8351 27.8715H37.3408L43.147 3.88281H38.142L34.2715 20.558Z" fill="white"/>
<path d="M48.1592 2.64166C47.6434 2.66732 47.1464 2.84457 46.7298 3.15145C46.3132 3.45832 45.9953 3.88134 45.8155 4.36809C45.6357 4.85483 45.6019 5.38393 45.7182 5.88981C45.8346 6.3957 46.096 6.85615 46.4701 7.21412C46.8442 7.57209 47.3145 7.81185 47.8228 7.90369C48.3311 7.99553 48.8551 7.93542 49.3297 7.73081C49.8044 7.52619 50.2089 7.18607 50.4932 6.75257C50.7774 6.31906 50.929 5.81124 50.929 5.292C50.9282 4.9327 50.8551 4.57727 50.7139 4.24719C50.5728 3.9171 50.3665 3.61921 50.1077 3.3715C49.8488 3.12379 49.5427 2.9314 49.2078 2.80596C48.8729 2.68052 48.5162 2.62463 48.1592 2.64166Z" fill="white"/>
<path d="M50.5967 10.3252H45.791V27.872H50.5967V10.3252Z" fill="white"/>
<path d="M54.235 14.0825H61.9769L53.3672 27.3356V27.872H68.65V24.1146H60.3089L68.9853 10.9286V10.3252H54.235V14.0825Z" fill="white"/>
<path d="M79.3652 9.92204C78.1659 9.87717 76.9704 10.0833 75.8545 10.5274C74.7385 10.9715 73.7265 11.6438 72.8826 12.5018C72.0387 13.3597 71.3813 14.3846 70.952 15.5115C70.5228 16.6383 70.3311 17.8425 70.389 19.0477V19.3168C70.389 24.9192 74.2268 28.2411 79.4991 28.2411C84.2708 28.2411 87.2745 26.1271 87.841 22.3355H83.2698C82.9692 23.8119 81.8683 24.785 79.6328 24.785C76.9957 24.785 75.4283 23.1078 75.2945 20.1883H87.8748V18.8468C87.8748 12.5734 83.8702 9.92204 79.3652 9.92204ZM75.3616 17.2028C75.7281 14.7201 77.1966 13.2774 79.3652 13.2774C81.6673 13.2774 83.0032 14.5519 83.17 17.2028H75.3616Z" fill="white"/>
<path d="M103.195 2.37305V12.9413C102.661 11.9613 101.858 11.1559 100.882 10.6207C99.9063 10.0855 98.7981 9.84295 97.6893 9.92189C93.318 9.92189 90.0137 13.3105 90.0137 19.0817V19.3499C90.0137 25.1878 93.351 28.2409 97.5893 28.2409C98.7314 28.2501 99.8549 27.9496 100.841 27.3709C101.828 26.7923 102.641 25.957 103.195 24.9529V27.8715H108V2.37305H103.195ZM103.328 19.1821C103.328 22.7383 101.56 24.4497 99.0238 24.4497C96.6213 24.4497 94.9531 22.7383 94.9531 19.2494V18.9812C94.9531 15.4911 96.4546 13.6463 99.1576 13.6463C101.794 13.6463 103.328 15.4244 103.328 18.914V19.1821Z" fill="white"/>
<path d="M0 31.0001H9.20991V27.4108H4.83881V3.58926H9.20991V0H0V31.0001Z" fill="white"/>
</g>
<defs>
<clipPath id="clip0_45_431">
<rect width="108" height="31" fill="white"/>
</clipPath>
</defs>
</svg>
