<svg width="132" height="31" viewBox="0 0 132 31" fill="none" xmlns="http://www.w3.org/2000/svg">
<g clip-path="url(#clip0_45_419)">
<mask id="mask0_45_419" style="mask-type:luminance" maskUnits="userSpaceOnUse" x="0" y="0" width="132" height="31">
<path d="M132 0H0V31H132V0Z" fill="white"/>
</mask>
<g mask="url(#mask0_45_419)">
<path d="M57.7219 2.58197C57.4062 2.03255 56.9825 1.54967 56.4753 1.16114C55.882 0.728174 55.1579 0.50159 54.4179 0.517374C53.6801 0.50401 52.9579 0.72609 52.3606 1.15003C51.8442 1.53137 51.4136 2.01276 51.0957 2.56415L38.7754 22.6651L44.001 27.5664L54.2516 10.5518L58.6319 17.7539H52.0847L49.1152 22.7821L61.6816 22.8079L65.1965 28.5778H73.71L57.7219 2.58197Z" fill="white"/>
<path d="M89.0433 0.656244V17.2108L73.2033 1.83063C72.8187 1.43892 72.3665 1.11667 71.8675 0.878669C71.3928 0.66279 70.8756 0.550995 70.3521 0.551102C69.8452 0.537292 69.3415 0.633863 68.8773 0.833834C68.4132 1.03381 68.0002 1.33218 67.6683 1.7074C67.0236 2.48701 66.6908 3.4695 66.7319 4.47157V14.9199L73.6622 26.2713V12.0552L89.4325 27.5761C90.3243 28.447 91.3277 28.8892 92.4204 28.8892C92.9133 28.8983 93.4022 28.8013 93.8526 28.6053C94.303 28.4092 94.704 28.1189 95.0272 27.7546C95.6555 27.0525 95.9739 26.1124 95.9739 24.9646V0.656244H89.0433Z" fill="white"/>
<path d="M129.84 8.98851C129.202 7.36446 128.223 5.88959 126.966 4.65949C125.708 3.4294 124.201 2.47152 122.541 1.84792C120.758 1.17435 118.861 0.837825 116.95 0.856181H110.707C108.844 0.840742 106.995 1.1705 105.258 1.82803C103.618 2.45596 102.123 3.4003 100.863 4.60486C99.5933 5.83426 98.5997 7.3099 97.9465 8.93711C97.2416 10.6963 96.8887 12.5716 96.9069 14.461C96.8926 16.3588 97.2404 18.2424 97.9326 20.0152C98.5847 21.6836 99.5678 23.2092 100.825 24.504C102.074 25.7734 103.567 26.7892 105.218 27.4932C106.951 28.2308 108.824 28.6038 110.715 28.588H116.954C119.74 28.6309 122.471 27.831 124.775 26.2977C127.079 24.7643 128.843 22.5723 129.826 20.0212C130.518 18.2485 130.866 16.3648 130.851 14.467C130.873 12.5945 130.529 10.7353 129.84 8.98851ZM116.954 21.5898H110.707C109.791 21.5987 108.883 21.4228 108.04 21.0731C107.253 20.7459 106.541 20.2647 105.951 19.659C105.347 19.0285 104.877 18.2868 104.568 17.4771C104.222 16.5784 104.049 15.6247 104.057 14.6644C104.044 13.7066 104.216 12.755 104.564 11.8596C104.876 11.0682 105.344 10.3449 105.942 9.73122C106.534 9.13462 107.244 8.66217 108.028 8.34268C108.878 8.00634 109.789 7.8404 110.706 7.85469H116.953C117.891 7.84442 118.821 8.0168 119.69 8.3618C120.494 8.67586 121.222 9.1515 121.826 9.75797C122.431 10.3644 122.898 11.0882 123.199 11.8826C123.546 12.7731 123.719 13.7195 123.71 14.6726C123.718 15.633 123.545 16.5866 123.199 17.4854C122.889 18.293 122.415 19.0311 121.806 19.6554C121.201 20.2637 120.478 20.7469 119.678 21.0762C118.815 21.427 117.888 21.6016 116.954 21.5898Z" fill="white"/>
<path d="M29.255 13.9138L43.3511 0.862305H30.9618L23.0605 8.17934L29.2086 13.8699L29.255 13.9138Z" fill="white"/>
<path d="M29.2086 15.57L23.0605 21.2627L30.9618 28.5779H43.3511L29.255 15.5264L29.2086 15.57Z" fill="white"/>
<path d="M13.4186 0.862305H1.0293L15.9947 14.7211L1.0293 28.5779H13.4186L28.3874 14.7211L13.4186 0.862305Z" fill="white"/>
</g>
</g>
<defs>
<clipPath id="clip0_45_419">
<rect width="132" height="31" fill="white"/>
</clipPath>
</defs>
</svg>
